<svg width="1200" height="630" viewBox="0 0 1200 630" fill="none" xmlns="http://www.w3.org/2000/svg">
  <rect width="1200" height="630" rx="48" fill="#F5F3EE"/>
  <rect x="40" y="40" width="1120" height="550" rx="36" fill="url(#panel)"/>
  <rect x="72" y="72" width="420" height="486" rx="32" fill="#F9FBFF" stroke="#CFE0F4" stroke-width="4"/>
  <rect x="136" y="292" width="48" height="116" rx="24" fill="#0B67D1"/>
  <rect x="200" y="228" width="48" height="184" rx="24" fill="#00A9A8"/>
  <rect x="264" y="170" width="48" height="242" rx="24" fill="#0B67D1"/>
  <rect x="328" y="208" width="48" height="156" rx="24" fill="#F7B500"/>
  <rect x="392" y="258" width="48" height="106" rx="24" fill="#00A9A8"/>
  <path d="M348 420L430 474" stroke="#111827" stroke-width="18" stroke-linecap="round"/>
  <path d="M252 160L160 118" stroke="#111827" stroke-width="18" stroke-linecap="round"/>
  <circle cx="160" cy="118" r="18" fill="#111827"/>
  <circle cx="430" cy="474" r="18" fill="#111827"/>
  <text x="548" y="200" fill="#0F1728" font-family="'Space Grotesk', sans-serif" font-size="64" font-weight="700">
    ComfyUI-LTXLongAudio
  </text>
  <text x="548" y="268" fill="#334155" font-family="'Space Grotesk', sans-serif" font-size="28" font-weight="500">
    Native LTX nodes for long-audio chunk planning,
  </text>
  <text x="548" y="308" fill="#334155" font-family="'Space Grotesk', sans-serif" font-size="28" font-weight="500">
    deterministic frame selection, and final MP4 preview.
  </text>
  <rect x="548" y="360" width="180" height="48" rx="24" fill="#E5F0FF"/>
  <rect x="744" y="360" width="150" height="48" rx="24" fill="#DDF7F6"/>
  <rect x="910" y="360" width="206" height="48" rx="24" fill="#FFF4CC"/>
  <text x="580" y="392" fill="#0B67D1" font-family="'IBM Plex Mono', monospace" font-size="22" font-weight="600">
    Chunk planning
  </text>
  <text x="785" y="392" fill="#007D7C" font-family="'IBM Plex Mono', monospace" font-size="22" font-weight="600">
    App mode
  </text>
  <text x="945" y="392" fill="#A46B00" font-family="'IBM Plex Mono', monospace" font-size="22" font-weight="600">
    Final MP4 preview
  </text>
  <text x="548" y="482" fill="#475569" font-family="'IBM Plex Mono', monospace" font-size="24" font-weight="500">
    github.com/Sunwood-ai-labs/ComfyUI-LTXLongAudio
  </text>
  <defs>
    <linearGradient id="panel" x1="96" y1="96" x2="1104" y2="534" gradientUnits="userSpaceOnUse">
      <stop stop-color="#FFFFFF"/>
      <stop offset="1" stop-color="#EEF4FB"/>
    </linearGradient>
  </defs>
</svg>
